<svg width="30" height="30" viewBox="0 0 30 30" fill="#ffffff" xmlns="http://www.w3.org/2000/svg">
<path d="M2.00094 26.8433C2.56082 19.9494 8.1561 16.4444 14.9759 16.4444C21.8918 16.4444 27.5737 19.7568 27.997 26.8444C28.0139 27.1268 27.997 28 26.9119 28C21.5594 28 13.6057 28 3.05084 28C2.68858 28 1.97044 27.2188 2.00094 26.8433Z" /><path d="M15 13.5556C11.809 13.5556 9.22222 10.9688 9.22222 7.77778C9.22222 4.5868 11.809 2 15 2C18.191 2 20.7778 4.5868 20.7778 7.77778C20.7778 10.9688 18.191 13.5556 15 13.5556Z"/>
</svg>
